<?xml version="1.0" encoding="UTF-8"?>
<svg version="1.1" xmlns="http://www.w3.org/2000/svg" width="33" height="27">
<path d="M0 0 C10.89 0 21.78 0 33 0 C33 8.91 33 17.82 33 27 C22.11 27 11.22 27 0 27 C0 18.09 0 9.18 0 0 Z " fill="#1B1B1D" transform="translate(0,0)"/>
<path d="M0 0 C1.07507813 -0.00128906 2.15015625 -0.00257812 3.2578125 -0.00390625 C4.38960937 -0.00003906 5.52140625 0.00382813 6.6875 0.0078125 C7.81929687 0.00394531 8.95109375 0.00007812 10.1171875 -0.00390625 C11.19226563 -0.00261719 12.26734375 -0.00132813 13.375 0 C14.86580078 0.00169189 14.86580078 0.00169189 16.38671875 0.00341797 C18.6875 0.1328125 18.6875 0.1328125 19.6875 1.1328125 C19.76075436 3.831503 19.77972351 6.49783806 19.75 9.1953125 C19.729375 11.8146875 19.70875 14.4340625 19.6875 17.1328125 C11.1075 17.1328125 2.5275 17.1328125 -6.3125 17.1328125 C-6.333125 14.5134375 -6.35375 11.8940625 -6.375 9.1953125 C-6.384104 8.369104 -6.39320801 7.54289551 -6.40258789 6.69165039 C-6.40973945 4.83847491 -6.3627852 2.98531942 -6.3125 1.1328125 C-4.59682208 -0.58286542 -2.33877265 0.00265425 0 0 Z " fill="#F2F2F2" transform="translate(9.3125,8.8671875)"/>
<path d="M0 0 C3.63 0 7.26 0 11 0 C11 1.32 11 2.64 11 4 C7.37 4 3.74 4 0 4 C0 2.68 0 1.36 0 0 Z " fill="#EEEEEE" transform="translate(17,2)"/>
<path d="M0 0 C1.875 0.25 1.875 0.25 4 1 C5.25 3.0625 5.25 3.0625 6 5 C5.01 5.99 4.02 6.98 3 8 C2.01 7.67 1.02 7.34 0 7 C0.185625 6.21625 0.37125 5.4325 0.5625 4.625 C1.25962266 2.02910225 1.25962266 2.02910225 0 0 Z " fill="#202124" transform="translate(7,16)"/>
</svg>
